<svg xmlns="http://www.w3.org/2000/svg" xmlns:xlink="http://www.w3.org/1999/xlink" width="500" zoomAndPan="magnify" viewBox="0 0 375 374.999991" height="500" preserveAspectRatio="xMidYMid meet" version="1.0"><defs><clipPath id="1c283e8557"><path d="M 47 47 L 328 47 L 328 328 L 47 328 Z M 47 47 " clip-rule="nonzero"/></clipPath><clipPath id="b338aec6d4"><path d="M -87.046875 187.5 L 187.664062 -87.210938 L 462.375 187.5 L 187.664062 462.210938 Z M -87.046875 187.5 " clip-rule="nonzero"/></clipPath><clipPath id="e68aae1517"><path d="M -87.046875 187.5 L 187.664062 -87.210938 L 462.375 187.5 L 187.664062 462.210938 Z M -87.046875 187.5 " clip-rule="nonzero"/></clipPath><clipPath id="7e24c01ac8"><path d="M 179.492188 169.132812 L 216.242188 169.132812 L 216.242188 205.882812 L 179.492188 205.882812 Z M 179.492188 169.132812 " clip-rule="nonzero"/></clipPath></defs><g clip-path="url(#1c283e8557)"><g clip-path="url(#b338aec6d4)"><g clip-path="url(#e68aae1517)"><path fill="#b9ff66" d="M 59.15625 47.902344 L 174.261719 81.621094 C 178.609375 82.890625 183.050781 83.527344 187.585938 83.527344 C 192.117188 83.53125 196.558594 82.898438 200.910156 81.636719 L 316.011719 47.980469 C 316.789062 47.75 317.578125 47.628906 318.386719 47.613281 C 319.195312 47.601562 319.988281 47.691406 320.773438 47.890625 C 321.554688 48.089844 322.296875 48.390625 323 48.789062 C 323.699219 49.191406 324.335938 49.675781 324.910156 50.246094 C 325.480469 50.816406 325.964844 51.453125 326.363281 52.15625 C 326.765625 52.859375 327.0625 53.601562 327.261719 54.382812 C 327.460938 55.164062 327.554688 55.960938 327.539062 56.769531 C 327.523438 57.574219 327.402344 58.367188 327.175781 59.140625 L 293.457031 174.246094 C 292.195312 178.59375 291.5625 183.03125 291.5625 187.5625 C 291.5625 192.089844 292.195312 196.53125 293.457031 200.878906 L 327.144531 315.890625 C 327.371094 316.664062 327.492188 317.457031 327.507812 318.261719 C 327.523438 319.070312 327.429688 319.867188 327.230469 320.648438 C 327.03125 321.429688 326.734375 322.171875 326.332031 322.875 C 325.933594 323.578125 325.449219 324.214844 324.878906 324.785156 C 324.304688 325.355469 323.671875 325.839844 322.96875 326.242188 C 322.265625 326.640625 321.523438 326.941406 320.742188 327.140625 C 319.957031 327.339844 319.164062 327.429688 318.355469 327.414062 C 317.546875 327.402344 316.757812 327.28125 315.984375 327.050781 L 200.878906 293.332031 C 196.527344 292.070312 192.085938 291.4375 187.554688 291.441406 C 183.019531 291.441406 178.582031 292.078125 174.230469 293.347656 L 59.125 327.066406 C 58.351562 327.292969 57.5625 327.410156 56.753906 327.421875 C 55.949219 327.433594 55.15625 327.339844 54.375 327.136719 C 53.59375 326.9375 52.851562 326.636719 52.152344 326.238281 C 51.453125 325.839844 50.816406 325.351562 50.246094 324.785156 C 49.675781 324.214844 49.191406 323.578125 48.792969 322.878906 C 48.394531 322.175781 48.09375 321.4375 47.890625 320.65625 C 47.691406 319.875 47.597656 319.082031 47.609375 318.277344 C 47.621094 317.46875 47.738281 316.679688 47.964844 315.90625 L 81.679688 200.800781 C 82.953125 196.449219 83.589844 192.003906 83.589844 187.46875 C 83.589844 182.933594 82.953125 178.488281 81.679688 174.136719 L 48.027344 59.03125 C 47.804688 58.261719 47.691406 57.472656 47.683594 56.671875 C 47.675781 55.867188 47.769531 55.078125 47.972656 54.304688 C 48.175781 53.527344 48.472656 52.789062 48.871094 52.09375 C 49.269531 51.398438 49.753906 50.765625 50.320312 50.199219 C 50.890625 49.628906 51.519531 49.148438 52.21875 48.75 C 52.914062 48.351562 53.648438 48.050781 54.425781 47.847656 C 55.203125 47.648438 55.992188 47.550781 56.796875 47.558594 C 57.597656 47.566406 58.382812 47.683594 59.15625 47.902344 Z M 59.15625 47.902344 " fill-opacity="1" fill-rule="nonzero"/></g></g></g><g clip-path="url(#7e24c01ac8)"><path fill="#b9ff66" d="M 198.609375 169.574219 L 204.050781 179.527344 C 204.472656 180.296875 205.066406 180.890625 205.832031 181.3125 L 215.785156 186.761719 C 216.078125 186.921875 216.226562 187.171875 216.226562 187.507812 C 216.226562 187.84375 216.078125 188.09375 215.785156 188.253906 L 205.828125 193.695312 C 205.0625 194.117188 204.46875 194.710938 204.046875 195.480469 L 198.609375 205.425781 C 198.449219 205.71875 198.199219 205.867188 197.863281 205.867188 C 197.527344 205.867188 197.277344 205.71875 197.117188 205.425781 L 191.671875 195.46875 C 191.25 194.703125 190.65625 194.109375 189.886719 193.6875 L 179.933594 188.246094 C 179.640625 188.082031 179.492188 187.835938 179.492188 187.5 C 179.492188 187.164062 179.640625 186.914062 179.933594 186.753906 L 189.886719 181.308594 C 190.65625 180.886719 191.25 180.292969 191.671875 179.523438 L 197.121094 169.574219 C 197.28125 169.285156 197.53125 169.136719 197.863281 169.136719 C 198.199219 169.136719 198.445312 169.285156 198.609375 169.574219 Z M 198.609375 169.574219 " fill-opacity="1" fill-rule="nonzero"/></g></svg>